PathFileType	4	(X/Y/Z)	Patient4_TMGait_0pt4_01_left_29.trc.trc
DataRate	CameraRate	NumFrames	NumMarkers	Units	OrigDataRate	OrigDataStartFrame	OrigNumFrames
79.096045197740	79.096045197740	4	33	mm	79.096045197740	53	       141
Frame#	Time	Sacral			L.Shoulder			Chest			R.Shoulder			Neck			R.ASIS			L.ASIS			R.Thigh.Superior			R.Thigh.Lateral			R.Thigh.Inferior			R.Patella			L.Thigh.Superior			L.Thigh.Lateral			L.Thigh.Inferior			L.Patella			L.Shank.Superior			L.Shank.Lateral			L.Shank.Inferior			R.Shank.Superior			R.Shank.Lateral			R.Shank.Inferior			R.Heel			R.Midfoot.Superior			R.Midfoot.Lateral			R.Toe			L.Heel			L.Midfoot.Lateral			L.Midfoot.Superior			L.Toe			L.Elbow			L.Wrist			R.Elbow			R.Wrist			
		X1	Y1	Z1	X2	Y2	Z2	X3	Y3	Z3	X4	Y4	Z4	X5	Y5	Z5	X6	Y6	Z6	X7	Y7	Z7	X8	Y8	Z8	X9	Y9	Z9	X10	Y10	Z10	X11	Y11	Z11	X12	Y12	Z12	X13	Y13	Z13	X14	Y14	Z14	X15	Y15	Z15	X16	Y16	Z16	X17	Y17	Z17	X18	Y18	Z18	X19	Y19	Z19	X20	Y20	Z20	X21	Y21	Z21	X22	Y22	Z22	X23	Y23	Z23	X24	Y24	Z24	X25	Y25	Z25	X26	Y26	Z26	X27	Y27	Z27	X28	Y28	Z28	X29	Y29	Z29	X30	Y30	Z30	X31	Y31	Z31	X32	Y32	Z32	X33	Y33	Z33	

53	36.127428571429	865.268573247558	1001.874060636619	464.305449877154	1045.360206465769	1433.466959047260	272.693150117927	1140.802751323235	1374.016000534827	441.321634524691	1044.013743087868	1449.079717837157	607.782575613596	1021.385173913279	1498.387961813703	426.614816758995	1093.432645195112	951.650427566545	587.367202268073	1088.290410621328	970.481349824384	313.449309847992	1187.762796012005	785.685797651786	552.446281709471	1157.896870646519	661.925250438625	625.395667280771	1246.584563326207	628.903817418225	542.499578225135	1274.537370989923	519.409972879020	564.530098030826	1141.872983336829	756.804827732990	347.368295284480	1059.171543280780	639.844437695540	281.580106457299	1138.241783687767	563.858848914312	351.622979730715	1137.349539009603	495.772264441965	361.557990997869	1116.036325631841	422.331236782885	350.170374464208	1034.069381197846	304.334864999655	295.749921581648	1086.456004752655	195.864569169964	370.119176451275	1206.591942279433	437.731174529365	573.671728730908	1093.219868065873	383.946791836200	638.031697935821	1089.994360467307	274.341202607787	588.890257782646	897.952019506686	192.205199947114	566.294404667943	1072.121715794083	151.164566793096	606.589144291121	963.652331641650	140.140829882708	639.982545770863	1146.284323860662	44.332729342946	631.285891674255	961.964102096874	37.447922621415	408.369226585204	1035.456952577370	35.686290431548	326.844243775803	1116.506278688473	98.696566821175	354.564745207402	1245.788622215110	52.375869240496	324.951164058853	1084.616446875756	1090.543754747482	138.778190604492	1242.926792418704	880.615964449847	141.229466021487	978.140004189317	1108.789730931104	729.595423593635	1041.513997608810	857.003515776638	758.876972925591	
54	36.140071428571	864.220057347332	1002.453868727640	462.550712195844	1047.225835488585	1434.273904074517	272.648947500007	1140.837267251302	1374.136336162332	442.046829912322	1042.618342248428	1449.060823582527	607.709227679555	1021.886918246501	1498.879381109975	426.615678572609	1091.413469703373	952.462012425905	587.487746758968	1088.496591691293	970.599228844667	313.425148001255	1186.945076984207	787.744244612760	552.649441895744	1158.248032409635	664.117247101693	626.228177585785	1246.605173882774	631.432291712990	542.892658878806	1276.284876152743	523.320319409601	565.577204121950	1140.215986024396	756.329623003585	348.097573329917	1057.024010242629	639.948542903821	281.301704691003	1134.857798527882	563.379561457318	351.905240636164	1133.381841750813	495.387942615998	361.729447801927	1111.975315151878	422.103598442542	350.204512604005	1029.842417082218	304.309397201571	295.643799302941	1081.608952238226	195.704564105082	370.217611306098	1211.180965458678	440.037629964855	575.066350056838	1100.243475408878	381.455014142370	639.349483543302	1102.006554247426	271.682438616045	590.403595978464	913.848221624635	180.297618707310	567.317725456250	1089.737639179089	148.123974079928	608.496998093665	981.785131714163	131.991797069760	641.624101541058	1168.982601634855	45.554836372897	634.331917094783	956.855186556068	37.442795602326	408.365507013406	1030.378620726483	35.683957430185	326.851975433104	1111.432464941910	98.651030410928	354.643887557728	1240.713687448490	52.338368696303	325.006661619790	1088.860316167976	1092.765964973945	136.590519220637	1254.468574079548	888.364368931552	142.114840663445	972.032984727858	1109.531803381985	728.300397596152	1024.006872592671	855.682800602592	762.000973166101	
55	36.152714285714	863.172140870977	1002.979437669031	460.899834837541	1049.201534422985	1434.906032927406	272.732170958694	1140.993467419886	1374.076204250196	442.876415881516	1041.423368272807	1448.977062480432	607.731045868798	1022.523420573161	1499.248811991693	426.718919549800	1089.385268368372	953.049755305276	587.680811720776	1088.640595732481	970.611863537207	313.474733805709	1185.839889859050	789.351897617941	553.071177691030	1157.891408435555	665.856302781858	627.261692087903	1245.992321143578	633.384532453653	543.667632325670	1277.197463010961	526.843294768123	566.951281900927	1138.475068435588	755.814750697019	348.788868898310	1054.871238634771	640.010373808271	280.993505071593	1131.491136367902	562.881205327444	352.114707190522	1129.439745433238	494.983678825595	361.805586159840	1107.926650838025	421.849781940832	350.172625350796	1025.608615469015	304.261105725560	295.498000588676	1076.746714911040	195.528541762024	370.273297600046	1215.275854975232	442.008768223432	576.687437327238	1107.201475602881	378.386314248102	640.909165417149	1114.308964482654	268.688711813251	592.096463533343	930.744733319327	167.712979479335	568.560807562813	1108.028306449807	144.878221280805	610.409854915647	1000.918690593761	123.403321803214	643.396158896222	1192.475144126729	47.046551935924	637.334906094869	951.755089827729	37.437177392428	408.362561519893	1025.298456466871	35.672284385539	326.853911343512	1106.366373680574	98.594859040872	354.702841985909	1235.644839158881	52.275294953976	325.047376085639	1092.945586096109	1094.819435806855	134.564777265046	1265.596718783754	896.227952631084	143.295883032989	966.112944873404	1110.427633868404	727.389308672222	1007.672867302617	855.259731790050	764.773802848238	
56	36.165357142857	862.140954377421	1003.465376802372	459.361140578659	1051.261609321801	1435.362877784467	272.949164110399	1141.272242706170	1373.846738492260	443.805674264025	1040.447989906064	1448.839057044391	607.855500437538	1023.295508099947	1499.502123788025	426.928414849418	1087.373179868472	953.420585703010	587.944964963472	1088.727956036666	970.533259801587	313.593675061124	1184.429647626694	790.489608883401	553.702141422850	1156.782012312011	667.116071216734	628.454374637424	1244.738635110862	634.749550196963	544.814509516214	1277.269831271183	529.953141814976	568.592984304506	1136.672999725811	755.261685790743	349.436364432648	1052.718411233862	640.035627817961	280.672631284429	1128.153496230096	562.362844898683	352.267208863181	1125.537826031979	494.559591413138	361.813199757384	1103.902972322620	421.571506265370	350.096887748674	1021.377934532539	304.194730159738	295.328441278108	1071.883158275271	195.338509731677	370.297203527239	1218.849799886233	443.674781729926	578.464715324689	1114.116612261176	374.877775492537	642.699213520302	1126.805762510040	265.551731366068	593.929972502595	948.569765887544	154.838988353015	570.096332099303	1126.831785700872	141.679592442054	612.268853282890	1020.961483048698	114.703706455699	645.292434131679	1216.477302710390	49.008692907195	640.090646403018	946.665336111225	37.430414195772	408.358310533470	1020.217809771486	35.652539339749	326.850189059118	1101.309888996983	98.528041752116	354.744701322632	1230.582627658541	52.186692320528	325.073746488939	1096.917644876088	1096.686442194351	132.745395137257	1276.272365224416	904.126457709755	144.764414318344	960.328049845767	1111.489349755544	726.852539492371	992.577739508456	855.587860384174	767.208355038313	
